<mxfile host="app.diagrams.net" modified="2024-06-24T03:10:58.297Z" agent="Mozilla/5.0 (Windows NT 10.0; Win64; x64) AppleWebKit/537.36 (KHTML, like Gecko) Chrome/125.0.0.0 Safari/537.36 Edg/125.0.0.0" etag="yK7K9gMMiwL-UzREhY2u" version="24.6.2" type="github">
  <diagram name="第 1 页" id="pPN1wWUZRz_Zrvyq4Opq">
    <mxGraphModel dx="978" dy="526" grid="1" gridSize="10" guides="1" tooltips="1" connect="1" arrows="1" fold="1" page="1" pageScale="1" pageWidth="827" pageHeight="1169" math="0" shadow="0">
      <root>
        <mxCell id="0" />
        <mxCell id="1" parent="0" />
        <mxCell id="3TOQ470KdbpJ5O3Wx0zu-1" value="客户端" style="sketch=0;outlineConnect=0;fontColor=#232F3E;gradientColor=none;strokeColor=#232F3E;fillColor=#ffffff;dashed=0;verticalLabelPosition=bottom;verticalAlign=top;align=center;html=1;fontSize=12;fontStyle=0;aspect=fixed;shape=mxgraph.aws4.resourceIcon;resIcon=mxgraph.aws4.client;" vertex="1" parent="1">
          <mxGeometry x="60" y="250" width="60" height="60" as="geometry" />
        </mxCell>
        <mxCell id="3TOQ470KdbpJ5O3Wx0zu-3" value="DispatcherServlet&lt;div&gt;(前端控制器)&lt;/div&gt;" style="rounded=0;whiteSpace=wrap;html=1;" vertex="1" parent="1">
          <mxGeometry x="294" y="250" width="120" height="60" as="geometry" />
        </mxCell>
        <mxCell id="3TOQ470KdbpJ5O3Wx0zu-6" value="" style="endArrow=classic;html=1;rounded=0;" edge="1" parent="1">
          <mxGeometry width="50" height="50" relative="1" as="geometry">
            <mxPoint x="120" y="270" as="sourcePoint" />
            <mxPoint x="290" y="270" as="targetPoint" />
          </mxGeometry>
        </mxCell>
        <mxCell id="3TOQ470KdbpJ5O3Wx0zu-7" value="1.客户端发送请求" style="edgeLabel;html=1;align=center;verticalAlign=middle;resizable=0;points=[];" vertex="1" connectable="0" parent="3TOQ470KdbpJ5O3Wx0zu-6">
          <mxGeometry x="-0.1286" y="2" relative="1" as="geometry">
            <mxPoint as="offset" />
          </mxGeometry>
        </mxCell>
        <mxCell id="3TOQ470KdbpJ5O3Wx0zu-8" value="HandlerMapping&lt;div&gt;(处理映射器)&lt;/div&gt;&lt;div&gt;将所有的映射路径和对应的方法声明存放到一个Map中&lt;/div&gt;" style="rounded=0;whiteSpace=wrap;html=1;" vertex="1" parent="1">
          <mxGeometry x="290" y="10" width="120" height="90" as="geometry" />
        </mxCell>
        <mxCell id="3TOQ470KdbpJ5O3Wx0zu-9" value="" style="endArrow=classic;html=1;rounded=0;entryX=0.25;entryY=1;entryDx=0;entryDy=0;exitX=0.25;exitY=0;exitDx=0;exitDy=0;" edge="1" parent="1">
          <mxGeometry width="50" height="50" relative="1" as="geometry">
            <mxPoint x="310" y="250" as="sourcePoint" />
            <mxPoint x="310" y="100" as="targetPoint" />
          </mxGeometry>
        </mxCell>
        <mxCell id="3TOQ470KdbpJ5O3Wx0zu-10" value="2.请求查询&lt;div&gt;handler&lt;/div&gt;" style="edgeLabel;html=1;align=center;verticalAlign=middle;resizable=0;points=[];" vertex="1" connectable="0" parent="3TOQ470KdbpJ5O3Wx0zu-9">
          <mxGeometry x="0.0125" y="-1" relative="1" as="geometry">
            <mxPoint as="offset" />
          </mxGeometry>
        </mxCell>
        <mxCell id="3TOQ470KdbpJ5O3Wx0zu-11" value="" style="endArrow=classic;html=1;rounded=0;exitX=0.75;exitY=1;exitDx=0;exitDy=0;entryX=0.75;entryY=0;entryDx=0;entryDy=0;" edge="1" parent="1">
          <mxGeometry width="50" height="50" relative="1" as="geometry">
            <mxPoint x="390" y="100" as="sourcePoint" />
            <mxPoint x="390" y="250" as="targetPoint" />
          </mxGeometry>
        </mxCell>
        <mxCell id="3TOQ470KdbpJ5O3Wx0zu-12" value="3.返回处理器&lt;div&gt;执行链&lt;/div&gt;" style="edgeLabel;html=1;align=center;verticalAlign=middle;resizable=0;points=[];" vertex="1" connectable="0" parent="3TOQ470KdbpJ5O3Wx0zu-11">
          <mxGeometry x="-0.0375" relative="1" as="geometry">
            <mxPoint as="offset" />
          </mxGeometry>
        </mxCell>
        <mxCell id="3TOQ470KdbpJ5O3Wx0zu-14" value="HandlerAdapter&lt;div&gt;(处理器适配器)&lt;/div&gt;&lt;div&gt;根据不同的请求形式进行适配,找到我们最终的方法.&lt;/div&gt;" style="rounded=0;whiteSpace=wrap;html=1;" vertex="1" parent="1">
          <mxGeometry x="600" y="250" width="170" height="60" as="geometry" />
        </mxCell>
        <mxCell id="3TOQ470KdbpJ5O3Wx0zu-15" value="" style="endArrow=classic;html=1;rounded=0;exitX=1;exitY=0.25;exitDx=0;exitDy=0;entryX=0;entryY=0.25;entryDx=0;entryDy=0;" edge="1" parent="1" source="3TOQ470KdbpJ5O3Wx0zu-3" target="3TOQ470KdbpJ5O3Wx0zu-14">
          <mxGeometry width="50" height="50" relative="1" as="geometry">
            <mxPoint x="470" y="300" as="sourcePoint" />
            <mxPoint x="520" y="250" as="targetPoint" />
          </mxGeometry>
        </mxCell>
        <mxCell id="3TOQ470KdbpJ5O3Wx0zu-16" value="4.请求执行handler" style="edgeLabel;html=1;align=center;verticalAlign=middle;resizable=0;points=[];" vertex="1" connectable="0" parent="3TOQ470KdbpJ5O3Wx0zu-15">
          <mxGeometry x="0.0274" relative="1" as="geometry">
            <mxPoint as="offset" />
          </mxGeometry>
        </mxCell>
        <mxCell id="3TOQ470KdbpJ5O3Wx0zu-17" value="" style="endArrow=classic;html=1;rounded=0;entryX=1;entryY=0.75;entryDx=0;entryDy=0;exitX=0;exitY=0.75;exitDx=0;exitDy=0;" edge="1" parent="1" source="3TOQ470KdbpJ5O3Wx0zu-14" target="3TOQ470KdbpJ5O3Wx0zu-3">
          <mxGeometry width="50" height="50" relative="1" as="geometry">
            <mxPoint x="460" y="410" as="sourcePoint" />
            <mxPoint x="510" y="360" as="targetPoint" />
          </mxGeometry>
        </mxCell>
        <mxCell id="3TOQ470KdbpJ5O3Wx0zu-19" value="7.ModelAndView&lt;div&gt;Model:数据&lt;/div&gt;&lt;div&gt;View:逻辑视图名&lt;/div&gt;" style="edgeLabel;html=1;align=center;verticalAlign=middle;resizable=0;points=[];" vertex="1" connectable="0" parent="3TOQ470KdbpJ5O3Wx0zu-17">
          <mxGeometry x="0.0822" relative="1" as="geometry">
            <mxPoint as="offset" />
          </mxGeometry>
        </mxCell>
        <mxCell id="3TOQ470KdbpJ5O3Wx0zu-20" value="Controller&lt;div&gt;(后端控制器)&lt;/div&gt;&lt;div&gt;我们自己写的&lt;/div&gt;" style="rounded=0;whiteSpace=wrap;html=1;" vertex="1" parent="1">
          <mxGeometry x="600" y="450" width="170" height="60" as="geometry" />
        </mxCell>
        <mxCell id="3TOQ470KdbpJ5O3Wx0zu-24" value="" style="endArrow=classic;html=1;rounded=0;exitX=0.75;exitY=1;exitDx=0;exitDy=0;entryX=0.75;entryY=0;entryDx=0;entryDy=0;" edge="1" parent="1" source="3TOQ470KdbpJ5O3Wx0zu-14" target="3TOQ470KdbpJ5O3Wx0zu-20">
          <mxGeometry width="50" height="50" relative="1" as="geometry">
            <mxPoint x="730" y="420" as="sourcePoint" />
            <mxPoint x="780" y="370" as="targetPoint" />
          </mxGeometry>
        </mxCell>
        <mxCell id="3TOQ470KdbpJ5O3Wx0zu-25" value="5.执行控制器" style="edgeLabel;html=1;align=center;verticalAlign=middle;resizable=0;points=[];" vertex="1" connectable="0" parent="3TOQ470KdbpJ5O3Wx0zu-24">
          <mxGeometry x="-0.046" y="-2" relative="1" as="geometry">
            <mxPoint as="offset" />
          </mxGeometry>
        </mxCell>
        <mxCell id="3TOQ470KdbpJ5O3Wx0zu-26" value="" style="endArrow=classic;html=1;rounded=0;entryX=0.25;entryY=1;entryDx=0;entryDy=0;exitX=0.25;exitY=0;exitDx=0;exitDy=0;" edge="1" parent="1" source="3TOQ470KdbpJ5O3Wx0zu-20" target="3TOQ470KdbpJ5O3Wx0zu-14">
          <mxGeometry width="50" height="50" relative="1" as="geometry">
            <mxPoint x="610" y="420" as="sourcePoint" />
            <mxPoint x="660" y="370" as="targetPoint" />
          </mxGeometry>
        </mxCell>
        <mxCell id="3TOQ470KdbpJ5O3Wx0zu-27" value="6.返回&lt;div&gt;ModelAndView&lt;/div&gt;" style="edgeLabel;html=1;align=center;verticalAlign=middle;resizable=0;points=[];" vertex="1" connectable="0" parent="3TOQ470KdbpJ5O3Wx0zu-26">
          <mxGeometry x="0.0579" y="1" relative="1" as="geometry">
            <mxPoint as="offset" />
          </mxGeometry>
        </mxCell>
        <mxCell id="3TOQ470KdbpJ5O3Wx0zu-28" value="" style="endArrow=classic;html=1;rounded=0;entryX=1;entryY=1;entryDx=0;entryDy=0;exitX=0;exitY=0.5;exitDx=0;exitDy=0;" edge="1" parent="1" source="3TOQ470KdbpJ5O3Wx0zu-20" target="3TOQ470KdbpJ5O3Wx0zu-3">
          <mxGeometry width="50" height="50" relative="1" as="geometry">
            <mxPoint x="500" y="440" as="sourcePoint" />
            <mxPoint x="550" y="390" as="targetPoint" />
          </mxGeometry>
        </mxCell>
        <mxCell id="3TOQ470KdbpJ5O3Wx0zu-29" value="只返回Model" style="edgeLabel;html=1;align=center;verticalAlign=middle;resizable=0;points=[];" vertex="1" connectable="0" parent="3TOQ470KdbpJ5O3Wx0zu-28">
          <mxGeometry x="0.0445" relative="1" as="geometry">
            <mxPoint as="offset" />
          </mxGeometry>
        </mxCell>
        <mxCell id="3TOQ470KdbpJ5O3Wx0zu-30" value="ViewResolver&lt;div&gt;(视图解析器)&lt;/div&gt;&lt;div&gt;根据逻辑视图名找到真正的物理视图.&lt;/div&gt;" style="rounded=0;whiteSpace=wrap;html=1;" vertex="1" parent="1">
          <mxGeometry x="294" y="450" width="120" height="60" as="geometry" />
        </mxCell>
        <mxCell id="3TOQ470KdbpJ5O3Wx0zu-31" value="" style="endArrow=classic;html=1;rounded=0;exitX=0.75;exitY=1;exitDx=0;exitDy=0;entryX=0.75;entryY=0;entryDx=0;entryDy=0;" edge="1" parent="1" source="3TOQ470KdbpJ5O3Wx0zu-3" target="3TOQ470KdbpJ5O3Wx0zu-30">
          <mxGeometry width="50" height="50" relative="1" as="geometry">
            <mxPoint x="360" y="410" as="sourcePoint" />
            <mxPoint x="410" y="360" as="targetPoint" />
          </mxGeometry>
        </mxCell>
        <mxCell id="3TOQ470KdbpJ5O3Wx0zu-32" value="8.请求&lt;div&gt;解析视图&lt;/div&gt;&lt;div&gt;ModelAndView&lt;/div&gt;" style="edgeLabel;html=1;align=center;verticalAlign=middle;resizable=0;points=[];" vertex="1" connectable="0" parent="3TOQ470KdbpJ5O3Wx0zu-31">
          <mxGeometry x="-0.2095" y="4" relative="1" as="geometry">
            <mxPoint as="offset" />
          </mxGeometry>
        </mxCell>
        <mxCell id="3TOQ470KdbpJ5O3Wx0zu-33" value="" style="endArrow=classic;html=1;rounded=0;entryX=0.211;entryY=1.006;entryDx=0;entryDy=0;entryPerimeter=0;exitX=0.193;exitY=-0.069;exitDx=0;exitDy=0;exitPerimeter=0;" edge="1" parent="1" source="3TOQ470KdbpJ5O3Wx0zu-30" target="3TOQ470KdbpJ5O3Wx0zu-3">
          <mxGeometry width="50" height="50" relative="1" as="geometry">
            <mxPoint x="270" y="420" as="sourcePoint" />
            <mxPoint x="320" y="370" as="targetPoint" />
          </mxGeometry>
        </mxCell>
        <mxCell id="3TOQ470KdbpJ5O3Wx0zu-34" value="9.返回&lt;div&gt;view对象&lt;/div&gt;&lt;div&gt;数据模型&lt;/div&gt;&lt;div&gt;物理视图&lt;/div&gt;" style="edgeLabel;html=1;align=center;verticalAlign=middle;resizable=0;points=[];" vertex="1" connectable="0" parent="3TOQ470KdbpJ5O3Wx0zu-33">
          <mxGeometry x="0.1388" y="2" relative="1" as="geometry">
            <mxPoint as="offset" />
          </mxGeometry>
        </mxCell>
        <mxCell id="3TOQ470KdbpJ5O3Wx0zu-35" value="DispatcherServlet会将视图和数据模型进行合并渲染.得到一个真正的html页面.&lt;div&gt;最终相应给用户&lt;/div&gt;" style="rounded=0;whiteSpace=wrap;html=1;" vertex="1" parent="1">
          <mxGeometry x="10" y="450" width="180" height="60" as="geometry" />
        </mxCell>
        <mxCell id="3TOQ470KdbpJ5O3Wx0zu-36" value="" style="endArrow=classic;startArrow=classic;html=1;rounded=0;entryX=0;entryY=1;entryDx=0;entryDy=0;exitX=0.5;exitY=0;exitDx=0;exitDy=0;" edge="1" parent="1" source="3TOQ470KdbpJ5O3Wx0zu-35" target="3TOQ470KdbpJ5O3Wx0zu-3">
          <mxGeometry width="50" height="50" relative="1" as="geometry">
            <mxPoint x="180" y="420" as="sourcePoint" />
            <mxPoint x="230" y="370" as="targetPoint" />
          </mxGeometry>
        </mxCell>
        <mxCell id="3TOQ470KdbpJ5O3Wx0zu-37" value="10.渲染视图" style="edgeLabel;html=1;align=center;verticalAlign=middle;resizable=0;points=[];" vertex="1" connectable="0" parent="3TOQ470KdbpJ5O3Wx0zu-36">
          <mxGeometry x="0.0795" y="-3" relative="1" as="geometry">
            <mxPoint as="offset" />
          </mxGeometry>
        </mxCell>
        <mxCell id="3TOQ470KdbpJ5O3Wx0zu-38" value="" style="endArrow=classic;html=1;rounded=0;" edge="1" parent="1">
          <mxGeometry width="50" height="50" relative="1" as="geometry">
            <mxPoint x="290" y="300" as="sourcePoint" />
            <mxPoint x="117.22221374511719" y="300" as="targetPoint" />
          </mxGeometry>
        </mxCell>
        <mxCell id="3TOQ470KdbpJ5O3Wx0zu-39" value="11.响应用户" style="edgeLabel;html=1;align=center;verticalAlign=middle;resizable=0;points=[];" vertex="1" connectable="0" parent="3TOQ470KdbpJ5O3Wx0zu-38">
          <mxGeometry x="0.0624" relative="1" as="geometry">
            <mxPoint as="offset" />
          </mxGeometry>
        </mxCell>
        <mxCell id="3TOQ470KdbpJ5O3Wx0zu-40" value="找到方法信息及&lt;div&gt;HandlerInterceptors&lt;/div&gt;&lt;div&gt;拦截器链&lt;/div&gt;" style="rounded=0;whiteSpace=wrap;html=1;" vertex="1" parent="1">
          <mxGeometry x="440" y="140" width="120" height="60" as="geometry" />
        </mxCell>
      </root>
    </mxGraphModel>
  </diagram>
</mxfile>
